<svg width="32" height="31" viewBox="0 0 32 31" fill="none" xmlns="http://www.w3.org/2000/svg">
<path fill-rule="evenodd" clip-rule="evenodd" d="M31.4276 13.9835C30.2647 13.5366 29.2966 12.9753 28.1566 12.4425C25.2695 11.0906 20.7325 9.53815 17.6506 8.59868C13.3542 7.29258 8.61099 6.14115 4.09121 5.45373L2.5617 5.23032C2.51014 5.21886 2.33829 5.15012 2.30391 5.13866L2.15497 5.05273C1.70815 5.09283 1.31288 5.25323 0.866061 5.2876L0.510894 8.46119C1.00927 8.69606 2.40703 8.82209 2.40703 10.1053C2.40703 11.1765 1.34725 11.5202 0.276025 11.5202C0.14427 12.1045 0.0526137 13.1471 0.00678568 13.8632C-0.0504993 14.7969 0.224469 14.1267 2.01176 14.373L6.85234 14.8198C12.7699 15.4901 24.3586 18.108 29.0617 21.8773C29.4055 22.1523 30.2876 22.9543 30.6027 23.0402C30.6027 21.6138 31.4276 16.441 31.4276 13.9835Z" fill="#D9241B"/>
<path fill-rule="evenodd" clip-rule="evenodd" d="M2.15526 5.05254L2.3042 5.13847C2.33857 5.14992 2.51042 5.21866 2.56198 5.23012L4.09149 5.45353C8.61128 6.14095 13.3545 7.29238 17.6509 8.59848C20.7328 9.53795 25.2698 11.0904 28.1569 12.4423C29.2969 12.9751 30.265 13.5364 31.4279 13.9833C32.2814 12.5626 26.2665 9.22861 25.6708 8.93073C24.4277 8.31205 23.2476 7.75639 21.9472 7.12626C19.2376 5.81443 12.5238 3.3569 9.99185 2.50908C8.70866 2.08517 2.65364 0.108842 1.33608 0C1.33608 0.796262 1.22151 1.31183 1.22151 2.23412C3.54155 2.77259 3.48427 4.19326 2.15526 5.05254Z" fill="#91110A"/>
<path fill-rule="evenodd" clip-rule="evenodd" d="M2.27681 16.534C3.84069 17.0266 6.82524 17.2959 8.55525 17.588C10.48 17.9145 12.7199 18.5103 14.5186 19.0373C16.535 19.6216 23.9019 22.0562 24.8414 23.5113C25.2538 23.855 26.4683 24.6226 26.686 25.4418C27.1328 27.126 24.3945 28.7586 23.2546 29.4346C21.9771 30.1907 21.7881 30.1105 20.883 30.5917L20.734 30.6776C21.347 30.6662 22.802 30.1678 23.3348 29.9902C24.1711 29.7095 24.9044 29.4116 25.7064 29.0679C39.2085 23.2879 16.9303 17.6052 13.0636 16.8376C11.0872 16.448 9.50045 16.1272 7.36945 15.8351L3.57718 15.5143C2.22525 15.4284 2.27681 14.9873 2.27681 16.534Z" fill="#BBBEC0"/>
<path fill-rule="evenodd" clip-rule="evenodd" d="M24.8402 23.5095C23.9007 22.0545 16.5338 19.6199 14.5174 19.0356C12.7187 18.5086 10.4788 17.9128 8.55405 17.5863C6.82404 17.2941 3.83949 17.0249 2.27561 16.5322C2.26415 17.1566 2.05793 18.0732 2.04074 18.6861C9.36176 19.2991 15.4168 19.6199 22.4285 22.3982C23.2018 22.7075 24.1757 23.3491 24.8402 23.5095Z" fill="#727275"/>
</svg>
