<svg width="18" height="16" viewBox="0 0 18 16" fill="none" xmlns="http://www.w3.org/2000/svg">
<path d="M16.7521 14.4873H15.9447V2.75851V2.73615V2.66888V2.64651V2.62414V0.336483C15.9447 0.157055 15.7877 0.000156432 15.6084 0.000156432L1.61455 0C1.43512 0 1.27822 0.157058 1.27822 0.336327V2.62382V2.64619V2.66856V2.73583V2.7582V14.5094H0.336327C0.156898 14.5094 0 14.6665 0 14.8458C0 15.0252 0.157059 15.1821 0.336327 15.1821L1.61453 15.1824H16.7745C16.954 15.1824 17.1109 15.0254 17.1109 14.8461C17.111 14.6667 16.9316 14.4872 16.7522 14.4872L16.7521 14.4873ZM15.2721 7.17645C14.7338 7.01939 14.2853 6.79522 13.9041 6.45873H13.8817C13.5454 6.14478 13.2762 5.76357 13.0967 5.31504H13.2761C14.0611 5.31504 14.7787 4.95619 15.2721 4.41808L15.2721 7.17645ZM5.00094 12.3793H12.2221C12.11 13.3212 12.0427 14.0836 12.0203 14.4874H5.22523C5.18049 14.0836 5.11323 13.3437 5.00106 12.3793H5.00094ZM12.3118 11.7065H4.91123C4.70943 10.2489 4.39547 8.45473 3.9021 6.79516C4.41786 6.27941 4.70944 5.67386 4.88889 5.11321C5.47192 4.88889 5.9653 4.46293 6.25688 3.92463C6.70536 4.75435 7.57997 5.315 8.5891 5.315C9.59824 5.315 10.4729 4.75435 10.9213 3.90212C11.2129 4.46277 11.7063 4.88891 12.3117 5.11305C12.4911 5.6737 12.7827 6.27924 13.2985 6.795C12.8276 8.47712 12.5137 10.2489 12.3119 11.7063L12.3118 11.7065ZM11.325 2.96031H15.2496C15.0925 3.9022 14.2854 4.64226 13.2986 4.64226C12.3118 4.64226 11.4821 3.9022 11.325 2.96031ZM3.94687 4.64226C2.96009 4.64226 2.1304 3.92455 1.99585 2.96031H5.9204C5.74098 3.9022 4.93362 4.64226 3.94687 4.64226ZM6.63796 2.96031H10.5625C10.4055 3.9022 9.59828 4.64226 8.61149 4.64226C7.6247 4.64226 6.79502 3.9022 6.63796 2.96031ZM1.95091 0.672812H15.272V2.28749H1.95091V0.672812ZM3.94683 5.315H4.12626C3.92446 5.76348 3.67778 6.14473 3.34127 6.45869H3.3189C2.96005 6.79502 2.48918 7.04173 1.95091 7.17641V4.41788C2.44428 4.95615 3.13949 5.315 3.94683 5.315H3.94683ZM1.95091 14.4873V7.87157C2.51156 7.73704 2.96005 7.53509 3.34129 7.28842C4.14863 10.2038 4.44021 13.4556 4.52987 14.5096H1.95095L1.95091 14.4873ZM12.6706 14.4873C12.7602 13.4332 13.0518 10.2039 13.8591 7.2885C14.2404 7.53519 14.7114 7.75952 15.2495 7.89404V14.5097H12.6706L12.6706 14.4873Z" fill="#222222"/>
</svg>
