<svg width="26" height="28" viewBox="0 0 26 28" xmlns="http://www.w3.org/2000/svg">
<path d="M22.2316 14.3294L20.1091 7.40684L20.606 6.86341C20.8649 6.58016 20.8439 6.13948 20.5587 5.87889C20.2735 5.6183 19.8326 5.63683 19.5736 5.92008L19.0767 6.46351L11.9896 4.97066C11.7478 4.91674 11.4961 4.99464 11.3286 5.1757L1.05755 16.4092C0.933286 16.5451 0.868469 16.7252 0.877366 16.9099C0.886088 17.0944 0.968144 17.2685 1.10498 17.3936L10.8229 26.2735C10.9598 26.3985 11.1406 26.4646 11.3252 26.4568C11.51 26.4491 11.6836 26.3684 11.8079 26.2325L22.0789 14.999C22.2444 14.819 22.3026 14.5646 22.2317 14.3295L22.2316 14.3294ZM11.2519 24.7835L2.56642 16.847L12.1016 6.41825L17.9894 7.65282L17.2299 8.48347C16.9711 8.76655 16.9922 9.20722 17.2774 9.46781C17.5625 9.7284 18.0035 9.70987 18.2623 9.4268L19.0218 8.59616L20.7795 14.3478L11.2519 24.7835ZM14.3005 15.7444C14.6825 15.6815 15.045 15.9403 15.1104 16.3223C15.176 16.7042 14.9192 17.065 14.5372 17.1278L6.23504 18.5238C6.05269 18.5545 5.86507 18.5113 5.71343 18.404C5.56195 18.2964 5.45925 18.1333 5.42774 17.9509C5.39502 17.7684 5.43641 17.5807 5.54239 17.4297C5.64871 17.2788 5.81108 17.1764 5.99359 17.1455L14.3005 15.7444ZM11.5781 15.4729C11.9283 15.0914 12.1114 14.5853 12.0871 14.0665C12.063 13.5475 11.8334 13.0581 11.4489 12.7058C11.0643 12.3537 10.5565 12.1677 10.0373 12.1888C9.51815 12.2101 9.02976 12.4367 8.68017 12.8187C8.33024 13.2007 8.14794 13.7069 8.17274 14.2259C8.19758 14.7449 8.42769 15.2341 8.81246 15.5857C9.19542 15.9356 9.70038 16.121 10.2172 16.1013C10.734 16.0818 11.2206 15.8586 11.5711 15.4807L11.5781 15.4729ZM9.71197 13.7677C9.86475 13.5984 10.1058 13.5387 10.3216 13.6167C10.5374 13.6948 10.6856 13.8952 10.6966 14.1239C10.7076 14.3525 10.5795 14.5643 10.3719 14.6601C10.1642 14.7557 9.91878 14.7162 9.75 14.5603C9.5235 14.3533 9.50358 14.0043 9.70495 13.7754L9.71197 13.7677ZM8.96436 18.7874L8.96438 18.7877C8.61514 19.1697 8.43281 19.676 8.45783 20.1948C8.48284 20.7135 8.71291 21.2025 9.09768 21.554C9.48226 21.9055 9.99019 22.0909 10.5093 22.0693C11.0284 22.0477 11.5162 21.8206 11.8655 21.4386C12.2149 21.0565 12.3972 20.5506 12.3722 20.0318C12.3472 19.513 12.1169 19.0239 11.7323 18.6725C11.3461 18.3196 10.8364 18.1344 10.3154 18.1573C9.7947 18.1804 9.30595 18.4099 8.9574 18.7954L8.96436 18.7874ZM10.8305 20.493C10.6159 20.6934 10.2819 20.694 10.0637 20.4946C9.84562 20.2954 9.81634 19.9627 9.99674 19.7311C10.0932 19.6072 10.2371 19.5296 10.3942 19.5169C10.5512 19.5042 10.7066 19.5575 10.8231 19.664C10.9398 19.7706 11.0069 19.9206 11.0083 20.0781C11.0097 20.2356 10.9453 20.3858 10.8305 20.493Z" fill="currentColor"/>
</svg>
