<svg width="24" height="13" viewBox="0 0 24 13" fill="none" xmlns="http://www.w3.org/2000/svg">
<path d="M12.0027 12.056C9.74161 12.0373 7.51299 11.5156 5.47812 10.529C3.44331 9.54247 1.65351 8.11541 0.238528 6.35157L0 6.02558L0.238528 5.69947C1.65403 3.93655 3.44386 2.51046 5.47846 1.5248C7.51326 0.538942 9.74158 0.0182402 12.0024 0C14.2625 0.018884 16.4901 0.540005 18.5236 1.52586C20.5573 2.51159 22.3465 3.93713 23.7615 5.6995L24 6.02562L23.7615 6.35174V6.3516C22.347 8.11493 20.558 9.5414 18.5243 10.528C16.4904 11.5145 14.2629 12.0364 12.0024 12.056L12.0027 12.056ZM1.39705 6.02547C2.37047 7.17419 6.10349 10.951 12.0027 10.951C17.9016 10.951 21.6203 7.17885 22.6084 6.03027C21.6156 4.86681 17.902 1.1044 12.0027 1.1044C6.10383 1.1044 2.38517 4.86661 1.39705 6.02513V6.02547Z" fill="#A5A5A5"/>
<path d="M12.0037 9.13588C11.1793 9.14097 10.3867 8.8182 9.80051 8.23841C9.21443 7.65863 8.88282 6.86965 8.87894 6.04531C8.87506 5.22083 9.19916 4.42879 9.77987 3.84349C10.3605 3.25823 11.15 2.92795 11.9745 2.92542C12.7988 2.92274 13.5905 3.24805 14.1748 3.82971C14.7591 4.41123 15.0882 5.20129 15.0895 6.02576C15.0895 6.84636 14.7652 7.63371 14.1871 8.21633C13.6092 8.79892 12.8244 9.12947 12.0037 9.13588ZM12.0037 4.02521C11.4718 4.02521 10.9618 4.23655 10.5858 4.61263C10.2097 4.98871 9.99834 5.49872 9.99834 6.03053C9.99834 6.56237 10.2097 7.07238 10.5858 7.44843C10.9618 7.82448 11.4719 8.03585 12.0037 8.03585C12.5355 8.03585 13.0457 7.82451 13.4216 7.44843C13.7976 7.07234 14.009 6.56234 14.009 6.03053C14.009 5.49868 13.7976 4.98868 13.4216 4.61263C13.0456 4.23655 12.5355 4.02521 12.0037 4.02521Z" fill="#A5A5A5"/>
</svg>
