<svg width="19" height="12" viewBox="0 0 19 12" fill="none" xmlns="http://www.w3.org/2000/svg">
<path d="M1.68892 0C0.7606 0 0 0.760601 0 1.68892V10.1333C0 11.0617 0.7606 11.8222 1.68892 11.8222H17.3111C18.2394 11.8222 19 11.0617 19 10.1333V1.68892C19 0.760601 18.2394 0 17.3111 0H1.68892ZM1.68892 0.844366H17.3111C17.7862 0.844366 18.1554 1.21369 18.1554 1.68873V10.1331C18.1554 10.6082 17.7861 10.9775 17.3111 10.9775H1.68892C1.21385 10.9775 0.844554 10.6082 0.844554 10.1331V1.68873C0.844554 1.21366 1.21388 0.844366 1.68892 0.844366ZM5.27776 2.74428C4.46664 2.74428 3.80002 3.41094 3.80002 4.22202C3.80002 5.0331 4.46668 5.69975 5.27776 5.69975C6.08884 5.69975 6.75549 5.0331 6.75549 4.22202C6.75549 3.41094 6.08884 2.74428 5.27776 2.74428ZM10.1333 3.16647C9.90004 3.16647 9.71111 3.35554 9.71111 3.58865C9.71111 3.82191 9.90019 4.01083 10.1333 4.01083H16.4666C16.6999 4.01083 16.8888 3.82175 16.8888 3.58865C16.8888 3.35539 16.6997 3.16647 16.4666 3.16647H10.1333ZM5.27776 3.58865C5.63251 3.58865 5.91113 3.86726 5.91113 4.22202C5.91113 4.57677 5.63251 4.85539 5.27776 4.85539C4.923 4.85539 4.64439 4.57677 4.64439 4.22202C4.64439 3.86727 4.923 3.58865 5.27776 3.58865ZM10.1333 5.48856C9.90004 5.48856 9.71111 5.67764 9.71111 5.91075C9.71111 6.14401 9.90019 6.33293 10.1333 6.33293H16.4666C16.6999 6.33293 16.8888 6.14385 16.8888 5.91075C16.8888 5.67749 16.6997 5.48856 16.4666 5.48856H10.1333ZM5.27776 6.12193C4.44293 6.12193 3.68455 6.33575 3.10732 6.70905C2.52993 7.08235 2.1111 7.64178 2.1111 8.29901V8.65523C2.1111 8.87626 2.31226 9.07741 2.53329 9.07741H8.02215C8.24319 9.07741 8.44434 8.87626 8.44434 8.65523V8.29901C8.44434 7.64178 8.02555 7.08237 7.44812 6.70905C6.87074 6.33575 6.11247 6.12193 5.27768 6.12193H5.27776ZM5.27776 6.9663C5.96341 6.9663 6.57835 7.15332 6.99303 7.42147C7.37766 7.67004 7.55394 7.95603 7.58014 8.23285H2.9753C3.00166 7.95585 3.17778 7.67001 3.56241 7.42147C3.97709 7.15331 4.59203 6.9663 5.27768 6.9663H5.27776ZM10.1333 7.81067C9.90004 7.81067 9.71111 7.99974 9.71111 8.23285C9.71111 8.46611 9.90019 8.65503 10.1333 8.65503H16.4666C16.6999 8.65503 16.8888 8.46595 16.8888 8.23285C16.8888 7.99959 16.6997 7.81067 16.4666 7.81067H10.1333Z" fill="#222222"/>
</svg>
