<svg width="17" height="17" viewBox="0 0 17 17" fill="none" xmlns="http://www.w3.org/2000/svg">
<path d="M8.5 0C6.24563 0 4.08367 0.895529 2.48963 2.48963C0.895529 4.08361 0 6.24569 0 8.5C0 10.7543 0.895529 12.9163 2.48963 14.5104C4.08361 16.1045 6.24569 17 8.5 17C10.7543 17 12.9163 16.1045 14.5104 14.5104C16.1045 12.9164 17 10.7543 17 8.5C17 6.24569 16.1045 4.08367 14.5104 2.48963C12.9164 0.895529 10.7543 0 8.5 0ZM8.5 15.5831C6.62142 15.5831 4.81983 14.8369 3.49141 13.5085C2.16305 12.1802 1.41682 10.3784 1.41682 8.49994C1.41682 6.62145 2.16305 4.81977 3.49141 3.49135C4.81977 2.16299 6.62151 1.41676 8.5 1.41676C10.3785 1.41676 12.1802 2.16299 13.5086 3.49135C14.8369 4.81971 15.5832 6.62145 15.5832 8.49994C15.5812 10.3779 14.8342 12.1783 13.5063 13.5064C12.1783 14.8343 10.3781 15.5812 8.49988 15.5832L8.5 15.5831Z" fill="#A5A5A5"/>
<path d="M6.49708 3.92828C5.96395 4.45835 5.665 5.17969 5.667 5.93148H7.0837H7.08358C7.08263 5.55557 7.23204 5.19484 7.49874 4.92982C7.76852 4.67214 8.12722 4.52829 8.50028 4.52829C8.87333 4.52829 9.23203 4.67213 9.50181 4.92982C9.76851 5.19485 9.91792 5.55557 9.91698 5.93148C9.91342 6.32694 9.7493 6.70403 9.46223 6.97618L8.87573 7.66823C8.17622 8.49439 7.79226 9.54171 7.79202 10.6241H9.20872H9.2086C9.20895 9.87706 9.47399 9.15429 9.95662 8.58416L10.5034 7.93458H10.5035C11.0347 7.40333 11.333 6.68272 11.333 5.93151C11.333 5.18017 11.0347 4.45968 10.5035 3.92832C9.96351 3.41392 9.24621 3.12695 8.50034 3.12695C7.75447 3.12695 7.03717 3.41392 6.49715 3.92832L6.49708 3.92828Z" fill="#A5A5A5"/>
<path d="M7.79199 12.041H9.20869V13.4577H7.79199V12.041Z" fill="#A5A5A5"/>
</svg>
