<svg width="12" height="13" viewBox="0 0 12 13" fill="none" xmlns="http://www.w3.org/2000/svg">
<path d="M11.6646 7.05734C11.6642 8.47461 11.1479 9.84335 10.2118 10.9076C9.27585 11.972 7.98438 12.659 6.57847 12.8404C5.17287 13.0216 3.74915 12.685 2.57375 11.8931C1.39821 11.1012 0.551411 9.90835 0.191302 8.53759C-0.16867 7.16673 -0.0173122 5.71163 0.617378 4.44432C1.25207 3.17701 2.32652 2.18427 3.63986 1.65148C3.75168 1.60067 3.87959 1.59772 3.99369 1.64331C4.10779 1.68902 4.19828 1.77925 4.24414 1.89321C4.29012 2.00717 4.28744 2.13508 4.2369 2.24704C4.18622 2.35899 4.0921 2.44546 3.97626 2.48636C2.5523 3.06486 1.47946 4.27421 1.07483 5.75703C0.670344 7.23985 0.980311 8.82661 1.91319 10.048C2.84607 11.2695 4.29522 11.9861 5.8321 11.9861C7.36898 11.9861 8.81827 11.2695 9.75102 10.048C10.6839 8.82647 10.9939 7.23975 10.5894 5.75703C10.1847 4.27421 9.1119 3.06486 7.68794 2.48636C7.5721 2.44547 7.47798 2.35899 7.4273 2.24704C7.37676 2.13509 7.37408 2.00719 7.42006 1.89321C7.46591 1.77925 7.55642 1.68902 7.67051 1.64331C7.7846 1.59772 7.91251 1.60067 8.02434 1.65148C9.10281 2.08412 10.0264 2.83076 10.6755 3.79474C11.3245 4.75857 11.6689 5.89522 11.6642 7.05724L11.6646 7.05734ZM5.83223 6.51677C6.08107 6.51677 6.28271 6.31512 6.28271 6.06629V0.45048C6.28271 0.201643 6.08107 0 5.83223 0C5.5834 0 5.38175 0.201643 5.38175 0.45048V6.06629C5.38175 6.18574 5.42921 6.30037 5.51368 6.38484C5.59815 6.4693 5.71278 6.51677 5.83223 6.51677Z" fill="#222222"/>
</svg>
