<svg width="232" height="232" viewBox="0 0 232 232" fill="none" xmlns="http://www.w3.org/2000/svg">
<g clip-path="url(#clip0_1365_16464)">
<path d="M29 29H58V58H29V29Z" fill="black"/>
<path d="M87 0V87H0V0H87ZM72.5 14.5H14.5V72.5H72.5V14.5ZM58 174H29V203H58V174Z" fill="black"/>
<path d="M87 145V232H0V145H87ZM14.5 159.5V217.5H72.5V159.5H14.5ZM174 29H203V58H174V29Z" fill="black"/>
<path d="M145 0V87H232V0H145ZM217.5 14.5V72.5H159.5V14.5H217.5ZM116 14.5V0H130.5V29H116V58H101.5V14.5H116ZM116 87V58H130.5V87H116ZM87 116V101.5H101.5V87H116V116H130.5V101.5H203V116H145V130.5H101.5V116H87ZM87 116V130.5H29V116H14.5V130.5H0V101.5H43.5V116H87ZM232 130.5H217.5V101.5H232V130.5ZM217.5 130.5H203V159.5H232V145H217.5V130.5ZM159.5 130.5H188.5V145H174V159.5H159.5V130.5ZM188.5 174V159.5H174V174H159.5V188.5H130.5V203H174V174H188.5ZM188.5 174H232V188.5H203V203H188.5V174ZM130.5 159.5V174H145V145H101.5V159.5H130.5Z" fill="black"/>
<path d="M101.5 174H116V217.5H174V232H101.5V174ZM232 203V232H188.5V217.5H217.5V203H232Z" fill="black"/>
</g>
<defs>
<clipPath id="clip0_1365_16464">
<rect width="232" height="232" fill="white"/>
</clipPath>
</defs>
</svg>
