<svg width="14" height="20" viewBox="0 0 14 20" fill="none" xmlns="http://www.w3.org/2000/svg">
<path d="M13.1691 6.03227H0.830997C0.372894 6.03227 0 5.65967 0 5.20171V3.43886C0 2.9809 0.372749 2.6083 0.830997 2.6083L13.1691 2.60815C13.6272 2.60815 14 2.98076 14 3.43872V5.20157C13.9999 5.65967 13.6272 6.03227 13.1691 6.03227V6.03227ZM0.830997 3.38846C0.803967 3.38846 0.780335 3.4121 0.780335 3.4387V5.20155C0.780335 5.22816 0.803968 5.25179 0.830997 5.25179L13.1691 5.25193C13.196 5.25193 13.2197 5.2283 13.2197 5.20169V3.43884C13.2197 3.41224 13.196 3.38861 13.1691 3.38861L0.830997 3.38846Z" fill="#B3140C"/>
<path d="M9.44915 3.38839H4.54461L4.48348 3.0721C4.47569 3.03205 4.47314 2.9845 4.47314 2.94516C4.47314 1.55278 5.6061 0.419678 6.99849 0.419678C8.39101 0.419678 9.52397 1.55278 9.52397 2.94531C9.52397 2.97163 9.52397 3.02116 9.51251 3.07635L9.44915 3.38839ZM5.28656 2.60808H8.71122C8.55385 1.80653 7.8457 1.20001 6.99873 1.20001C6.15175 1.20001 5.4439 1.80653 5.28652 2.60808H5.28656Z" fill="#B3140C"/>
<path d="M10.3836 19.1467H3.61662C2.71886 19.1467 1.9684 18.445 1.90855 17.5492L1.08197 5.25195H12.918L12.0917 17.5495C12.0315 18.4453 11.2811 19.1467 10.3835 19.1467L10.3836 19.1467ZM1.91644 6.03223L2.68701 17.4969C2.7197 17.9847 3.12798 18.3664 3.61662 18.3664H10.3836C10.8723 18.3664 11.2807 17.9846 11.3135 17.4969L12.084 6.03223H1.91644Z" fill="#B3140C"/>
<path d="M7.0023 17.0729C6.78677 17.0729 6.61212 16.8984 6.61212 16.6828V7.71635C6.61212 7.50068 6.78675 7.32617 7.0023 7.32617C7.21784 7.32617 7.39247 7.50066 7.39247 7.71635V16.6828C7.39247 16.8984 7.21784 17.0729 7.0023 17.0729Z" fill="#B3140C"/>
<path d="M4.66123 15.8108C4.44571 15.8108 4.27106 15.6363 4.27106 15.4206V8.97709C4.27106 8.76142 4.44569 8.58691 4.66123 8.58691C4.87676 8.58691 5.05141 8.7614 5.05141 8.97709V15.4206C5.05141 15.6363 4.87678 15.8108 4.66123 15.8108Z" fill="#B3140C"/>
<path d="M9.34312 15.8108C9.12759 15.8108 8.95294 15.6363 8.95294 15.4206V8.97709C8.95294 8.76142 9.12757 8.58691 9.34312 8.58691C9.55864 8.58691 9.73329 8.7614 9.73329 8.97709V15.4206C9.73315 15.6363 9.55852 15.8108 9.34312 15.8108Z" fill="#B3140C"/>
</svg>
